<svg width="207" height="73" viewBox="0 0 207 73" fill="none" xmlns="http://www.w3.org/2000/svg">
<path d="M12.321 41V23.5455H16.5398V30.9261H16.7699L22.5398 23.5455H27.5085L21.321 31.3352L27.6193 41H22.5739L18.2273 34.1392L16.5398 36.2699V41H12.321ZM37.0114 30.6705V33.875H28.9318V30.6705H37.0114ZM39.9538 23.5455H45.1783L49.6101 34.3523H49.8146L54.2464 23.5455H59.4709V41H55.3629V30.2784H55.218L51.0249 40.8892H48.3999L44.2067 30.2188H44.0618V41H39.9538V23.5455ZM65.8778 41H61.3438L67.233 23.5455H72.8494L78.7386 41H74.2045L70.1051 27.9432H69.9688L65.8778 41ZM65.2727 34.1307H74.75V37.3352H65.2727V34.1307ZM80.6179 41V23.5455H87.8281C89.1349 23.5455 90.2628 23.7812 91.2116 24.2528C92.1662 24.7187 92.902 25.3892 93.419 26.2642C93.9361 27.1335 94.1946 28.1648 94.1946 29.358C94.1946 30.5682 93.9304 31.5966 93.402 32.4432C92.8736 33.2841 92.1236 33.9261 91.152 34.3693C90.1804 34.8068 89.0298 35.0256 87.7003 35.0256H83.1406V31.7017H86.9162C87.5526 31.7017 88.0838 31.6193 88.5099 31.4545C88.9418 31.2841 89.2685 31.0284 89.4901 30.6875C89.7116 30.3409 89.8224 29.8977 89.8224 29.358C89.8224 28.8182 89.7116 28.3722 89.4901 28.0199C89.2685 27.6619 88.9418 27.3949 88.5099 27.2188C88.0781 27.0369 87.5469 26.946 86.9162 26.946H84.8366V41H80.6179ZM90.4446 33.0227L94.7912 41H90.1889L85.9276 33.0227H90.4446ZM95.9375 26.9716V23.5455H110.69V26.9716H105.398V41H101.239V26.9716H95.9375Z" fill="white"/>
<path d="M136.5 13L142.001 24.7467L159.801 24.7467L145.4 32.0066L150.901 43.7533L136.5 36.4934L122.099 43.7533L127.6 32.0066L113.199 24.7467L130.999 24.7467L136.5 13Z" fill="#F68B1E"/>
</svg>
